<svg width="43" height="43" viewBox="0 0 43 43" fill="none" xmlns="http://www.w3.org/2000/svg">
<path d="M21.5 43C33.3741 43 43 33.3741 43 21.5C43 9.62588 33.3741 0 21.5 0C9.62588 0 0 9.62588 0 21.5C0 33.3741 9.62588 43 21.5 43Z" fill="url(#paint0_linear_2_75)"/>
<path d="M11 21.4025V27.801L14.4575 27.7846C18.0957 27.7682 18.1614 27.7641 18.9243 27.5713C19.322 27.4687 19.9661 27.1365 20.29 26.8658C20.938 26.3203 21.3853 25.5656 21.5615 24.7207C21.6394 24.3557 21.6477 23.6092 21.5779 23.2195C21.4058 22.2187 20.811 21.46 19.8716 21.0334L19.6543 20.935L19.9331 20.7709C20.3189 20.5371 20.7576 20.09 20.9175 19.7578C21.3237 18.9252 21.3196 17.6783 20.9053 16.8252C20.4214 15.8203 19.3877 15.201 17.9399 15.0451C17.6692 15.0164 16.3608 15 14.2607 15H11V21.4025ZM17.5215 17.3133C17.9685 17.4076 18.2515 17.5635 18.4116 17.8014C18.5837 18.0557 18.6289 18.2279 18.6289 18.6135C18.6289 19.2205 18.4033 19.602 17.9275 19.8193C17.4722 20.0244 17.218 20.0449 15.323 20.0449H13.584V18.6258V17.2066L15.4009 17.2271C16.8569 17.2436 17.2754 17.26 17.5215 17.3133ZM17.7554 22.268C18.1245 22.3787 18.3296 22.5018 18.5427 22.7355C18.8218 23.0391 18.8955 23.2688 18.8914 23.8184C18.8791 24.8396 18.387 25.3934 17.3696 25.541C17.2139 25.5615 16.3032 25.582 15.3394 25.582H13.584V23.8758V22.1736L15.5649 22.19C17.2222 22.2023 17.5789 22.2146 17.7554 22.268Z" fill="white"/>
<path d="M24.4121 16.3945V17.1738H27.2012H29.9902V16.3945V15.6152H27.2012H24.4121V16.3945Z" fill="white"/>
<path d="M26.5859 18.1213C24.7322 18.31 23.272 19.483 22.7551 21.1934C22.4148 22.3213 22.3982 23.9045 22.7141 24.9914C23.0422 26.1316 23.6082 26.8371 24.6912 27.4523C25.6221 27.9855 26.9099 28.2275 28.0461 28.0881C29.2888 27.9322 30.1174 27.559 30.8516 26.8125C31.3643 26.2957 31.717 25.7215 31.8318 25.217L31.8689 25.0488H30.5808H29.293L29.1494 25.2703C28.8911 25.6764 28.4851 25.943 27.9478 26.0578C26.8567 26.2875 25.7083 25.824 25.3022 24.9914C25.1628 24.7084 25.0273 24.1957 25.0273 23.9537V23.7773H28.522H32.0125L31.9878 22.9857C31.9468 21.6281 31.7375 20.8365 31.2002 20.0244C30.4333 18.8678 29.3628 18.2648 27.7959 18.1172C27.2874 18.0721 27.0864 18.0721 26.5859 18.1213ZM27.7795 20.1844C28.3621 20.3115 28.9033 20.7012 29.1289 21.1687C29.2603 21.4395 29.375 21.8373 29.375 22.0219V22.1367H27.2217H25.0684L25.093 22.0219C25.1628 21.6978 25.2939 21.3205 25.4048 21.1195C25.573 20.8242 25.905 20.4879 26.1594 20.3607C26.5818 20.1474 27.2546 20.0736 27.7795 20.1844Z" fill="white"/>
<defs>
<linearGradient id="paint0_linear_2_75" x1="43" y1="43" x2="5.126e-06" y2="5.126e-06" gradientUnits="userSpaceOnUse">
<stop stop-color="#A900FD"/>
<stop offset="0.877863" stop-color="#E71B7B"/>
</linearGradient>
</defs>
</svg>
