<svg width="238" height="103" viewBox="0 0 238 103" fill="none" xmlns="http://www.w3.org/2000/svg">
<path d="M71.3335 20.2665C67.3418 16.9653 61.6094 16.7546 58.2771 20.7669C54.3206 25.4904 55.6394 30.8723 53.9865 33.7871C51.982 37.299 49.3619 37.4746 45.9153 35.5431C44.7464 34.6904 43.6269 33.7774 42.5567 32.8038C37.6419 28.7476 30.6433 29.1076 26.9242 33.6116C23.2051 38.1155 24.1635 45.0251 29.0695 49.0901C30.0191 49.8715 31.5489 50.5738 32.4457 51.8644C34.6789 55.0514 34.5119 58.5809 31.4434 60.5738C28.9113 62.2156 25.3592 61.7767 20.9544 66.4035C17.3847 70.1612 18.2112 76.307 22.2116 79.573C26.2121 82.839 29.4739 82.1015 31.883 82.9444C36.1824 84.4194 34.1514 87.3342 42.3545 94.0945C44.2205 95.6336 46.2188 96.9762 48.3495 98.1223C50.4803 99.2684 52.7025 100.196 55.0161 100.905C57.3299 101.614 59.6906 102.091 62.0983 102.336C64.5061 102.581 66.9146 102.589 69.3239 102.36C71.7333 102.131 74.0971 101.67 76.4154 100.976C78.7338 100.282 80.9621 99.3695 83.1005 98.2375C85.2388 97.1056 87.246 95.7763 89.1222 94.2496C90.9983 92.7229 92.7073 91.0282 94.2493 89.1654C95.7912 87.3027 97.1364 85.3076 98.2848 83.1803C99.4333 81.053 100.363 78.8343 101.073 76.5241C101.784 74.214 102.263 71.8568 102.509 69.4526C102.755 67.0483 102.764 64.6432 102.535 62.2373C102.307 59.8313 101.846 57.4707 101.152 55.1554C100.458 52.8401 99.5451 50.6146 98.4123 48.479C97.2795 46.3433 95.9489 44.3385 94.4208 42.4645C92.8925 40.5905 91.196 38.8833 89.3311 37.3429C81.9369 31.1357 79.6158 33.6993 76.0989 29.0461C74.3404 26.7195 75.2196 23.4359 71.3335 20.2665Z" fill="url(#paint0_linear_2_12)"/>
<path d="M74.2524 37.1936C77.0131 40.8547 78.8771 38.8442 84.7063 43.752C86.0699 44.9941 87.3035 46.3536 88.4071 47.8307C89.5109 49.3078 90.4648 50.8758 91.2688 52.5347C92.0729 54.1936 92.7127 55.9134 93.1881 57.6942C93.6635 59.475 93.966 61.2846 94.0956 63.123C94.2251 64.9615 94.1795 66.7955 93.9585 68.6253C93.7376 70.455 93.3455 72.2474 92.782 74.0024C92.2185 75.7574 91.4941 77.4433 90.6083 79.0603C89.7227 80.6772 88.6919 82.1959 87.516 83.6164C86.3402 85.0369 85.0404 86.3336 83.6167 87.5064C82.193 88.6792 80.6712 89.707 79.0511 90.5898C77.4311 91.4726 75.742 92.1945 73.9839 92.7554C72.2259 93.3164 70.4306 93.7062 68.5979 93.9251C66.7654 94.1439 64.9287 94.1878 63.0878 94.0566C61.2469 93.9254 59.435 93.6215 57.6521 93.1451C55.8692 92.6687 54.1476 92.0281 52.4871 91.2236C50.8266 90.4191 49.2574 89.465 47.7792 88.3614C41.3257 83.0409 42.9171 80.7582 39.5409 79.5818C37.6242 78.9233 35.0833 79.5818 31.9181 76.9479C28.753 74.314 28.1287 69.5291 30.9334 66.5703C34.3887 62.9268 37.1846 63.278 39.1717 61.9873C41.5895 60.4246 41.7213 57.6502 39.9629 55.1392C39.2596 54.1296 38.0551 53.5764 37.3252 52.9619C33.4567 49.7749 32.7094 44.3315 35.6548 40.7933C38.6001 37.2551 44.0865 36.9741 47.9638 40.1611C48.8039 40.9261 49.683 41.6431 50.6015 42.3122C53.3183 43.8222 55.3669 43.6642 56.9494 40.925C58.2155 38.6335 57.1692 34.4017 60.2729 30.7318C62.9106 27.6062 67.3857 27.7467 70.5334 30.3455C73.5578 32.7862 72.872 35.3675 74.2524 37.1936ZM11.828 49.3183C11.4164 49.8154 11.1159 50.3723 10.9262 50.9888C10.7365 51.6054 10.6722 52.2347 10.7332 52.8768C10.7941 53.5189 10.9759 54.1249 11.2784 54.6948C11.5807 55.2647 11.9809 55.7551 12.4788 56.1661C12.9766 56.5771 13.5342 56.8773 14.1516 57.0667C14.7691 57.2561 15.3992 57.3204 16.0423 57.2595C16.6853 57.1986 17.2921 57.0171 17.8628 56.7151C18.4336 56.4131 18.9247 56.0135 19.3363 55.5164C19.7478 55.0193 20.0485 54.4625 20.2382 53.846C20.4279 53.2294 20.4923 52.6001 20.4313 51.958C20.3703 51.3159 20.1886 50.7099 19.8863 50.14C19.5838 49.57 19.1836 49.0796 18.6858 48.6686C18.1873 48.2574 17.6289 47.957 17.0108 47.7674C16.3926 47.5778 15.7616 47.5134 15.1178 47.5744C14.4742 47.6353 13.8665 47.8168 13.295 48.1189C12.7234 48.4211 12.2403 48.8209 11.828 49.3183ZM2.08625 29.7836C1.82245 30.1034 1.71039 30.4695 1.75006 30.882C1.78974 31.2944 1.96967 31.6325 2.28974 31.8963C2.60981 32.16 2.97638 32.2722 3.38947 32.2328C3.80255 32.1934 4.1413 32.014 4.40558 31.6946C4.66986 31.3752 4.78253 31.0092 4.74335 30.5967C4.70429 30.1842 4.52484 29.8459 4.20514 29.5817C3.8841 29.3194 3.51703 29.208 3.10419 29.2473C2.69123 29.2867 2.35187 29.4654 2.08625 29.7836ZM1.24225 5.42008C0.90448 5.83348 0.76178 6.30567 0.814026 6.83663C0.866394 7.3676 1.09857 7.80295 1.51056 8.14269C1.92255 8.48244 2.39447 8.62776 2.92646 8.57871C3.45856 8.52963 3.89594 8.30043 4.23859 7.8911C4.58124 7.48175 4.72968 7.01131 4.68366 6.47975C4.63776 5.9482 4.41083 5.5101 4.00299 5.16545C3.5882 4.81494 3.11017 4.66464 2.56916 4.71454C2.02802 4.76445 1.58576 4.99962 1.24225 5.42008ZM39.2156 0.7054C38.8727 1.11771 38.7261 1.5907 38.7757 2.12436C38.8254 2.65802 39.0567 3.09596 39.4696 3.4382C39.8827 3.78044 40.3565 3.92668 40.8908 3.87692C41.4252 3.82717 41.8637 3.59599 42.2062 3.1834C42.5489 2.7708 42.6951 2.29769 42.6451 1.76407C42.595 1.23046 42.3633 0.792696 41.95 0.450792C41.5379 0.106767 41.0645 -0.0403579 40.5297 0.00944709C39.9949 0.0592361 39.5569 0.291231 39.2156 0.7054ZM26.8626 10.881C26.5971 11.2005 26.4837 11.5668 26.5225 11.9802C26.5613 12.3936 26.741 12.7325 27.0613 12.9971C27.3817 13.2616 27.7489 13.3741 28.1628 13.3345C28.5767 13.2949 28.9157 13.1148 29.18 12.7943C29.4442 12.4738 29.5562 12.107 29.5157 11.6938C29.4753 11.2806 29.2942 10.9423 28.9727 10.6791C28.6531 10.4173 28.2875 10.3061 27.876 10.3455C27.4644 10.3849 27.1266 10.5634 26.8626 10.881ZM19.3892 86.2982C19.1254 86.618 19.0133 86.9841 19.053 87.3966C19.0928 87.809 19.2726 88.1471 19.5927 88.4109C19.9128 88.6746 20.2793 88.7868 20.6924 88.7474C21.1055 88.708 21.4442 88.5286 21.7085 88.2092C21.9729 87.8898 22.0855 87.5238 22.0463 87.1113C22.0072 86.6988 21.8278 86.3605 21.5082 86.0963C21.1837 85.819 20.809 85.7002 20.3839 85.7398C19.9588 85.7796 19.6565 85.9657 19.3892 86.2982ZM38.9958 16.5351C38.5843 17.0322 38.2836 17.5891 38.0939 18.2056C37.9042 18.8222 37.8399 19.4515 37.9009 20.0936C37.9619 20.7357 38.1437 21.3417 38.4462 21.9116C38.7486 22.4815 39.1487 22.9719 39.6465 23.3829C40.1443 23.7939 40.7021 24.0941 41.3194 24.2835C41.9368 24.4729 42.5671 24.5372 43.2101 24.4763C43.8531 24.4154 44.46 24.2339 45.0307 23.9319C45.6015 23.6299 46.0926 23.2303 46.5041 22.7332C46.9157 22.2361 47.2163 21.6793 47.406 21.0628C47.5957 20.4462 47.6601 19.8169 47.5992 19.1748C47.5381 18.5327 47.3565 17.9267 47.054 17.3568C46.7516 16.7868 46.3515 16.2964 45.8537 15.8854C45.3537 15.4698 44.7929 15.166 44.1713 14.9739C43.5498 14.7818 42.9152 14.7163 42.2675 14.7773C41.6198 14.8383 41.0086 15.0211 40.434 15.3257C39.8593 15.6304 39.4092 16.0335 38.9958 16.5351ZM1.04877 51.5922C0.612976 52.1145 0.42633 52.7142 0.488708 53.3912C0.551086 54.0682 0.844299 54.6237 1.36823 55.0578C1.89215 55.4919 2.49311 55.6771 3.17084 55.6133C3.8487 55.5496 4.40448 55.2557 4.83808 54.7316C5.27167 54.2075 5.45587 53.607 5.39057 52.9303C5.32538 52.2536 5.02985 51.6993 4.50409 51.2674C3.98224 50.8355 3.38385 50.6513 2.70905 50.7148C2.03424 50.7782 1.48078 51.0707 1.04877 51.5922ZM68.476 7.694C68.0419 8.21668 67.8565 8.81606 67.9197 9.49214C67.9831 10.1683 68.2765 10.7229 68.8001 11.1562C69.3236 11.5895 69.924 11.7743 70.601 11.7109C71.2781 11.6474 71.8334 11.3541 72.2671 10.8311C72.7007 10.308 72.8857 9.7085 72.8218 9.03246C72.758 8.35642 72.464 7.80197 71.9401 7.36914C71.4132 6.93994 70.8116 6.75963 70.1352 6.8282C69.4588 6.89679 68.9057 7.16782 68.476 7.694ZM17.6836 24.1822C17.0566 24.9388 16.7893 25.8059 16.8819 26.7836C16.9744 27.7613 17.3996 28.5632 18.1574 29.1891C18.9152 29.815 19.7836 30.0816 20.7627 29.989C21.7419 29.8964 22.5447 29.4716 23.1713 28.7147C23.7979 27.9579 24.0647 27.0906 23.9717 26.1129C23.8788 25.1353 23.4533 24.3336 22.6951 23.7081C21.9367 23.0854 21.0689 22.8204 20.0913 22.9128C19.1139 23.0053 18.3113 23.4284 17.6836 24.1822Z" fill="url(#paint1_linear_2_12)"/>
<path d="M64.9414 67.009H69.8825L72.2213 72.5929H62.6026L64.9414 67.009Z" fill="url(#paint2_linear_2_12)"/>
<path d="M69.8825 67.009L72.2213 72.5929H62.6026L69.8825 67.009Z" fill="url(#paint3_linear_2_12)"/>
<path d="M71.2541 51.952L82.5872 78.7475H75.9668L68.0011 59.722L71.2541 51.952Z" fill="url(#paint4_linear_2_12)"/>
<path d="M75.9668 78.7475H82.5872L71.2541 51.952L75.9668 78.7475Z" fill="url(#paint5_linear_2_12)"/>
<path d="M52.2369 78.7477L64.1503 50.6001H70.6476L58.8573 78.7477H52.2369Z" fill="url(#paint6_linear_2_12)"/>
<path d="M70.6476 50.6001L58.8573 78.7477H52.2369L70.6476 50.6001Z" fill="url(#paint7_linear_2_12)"/>
<path d="M133.349 45.467L129.419 61.0333H125.568L123.467 50.6996L121.383 61.0333H117.453L113.575 45.467H117.171L119.448 56.8805L121.778 45.467H125.146L127.484 57.0034L129.762 45.467H133.349ZM144.832 58.0745L143.952 61.0333H134.756V45.467H143.548L144.33 48.373H138.176V51.6127H143.785L142.906 54.4661H138.141V58.0394L144.832 58.0745ZM146.854 49.0842H150.177V57.9867H152.991C154.327 57.9867 154.986 57.5741 154.986 56.7488C154.986 55.3616 153.691 53.9744 151.1 52.5873C153.257 51.3523 154.35 50.325 154.38 49.5056C154.38 48.7593 153.861 48.3906 152.824 48.3906H146.238L147.021 45.4231H153.175C156.499 45.4231 158.16 46.5088 158.16 48.6803C158.16 49.9738 157.425 51.241 155.954 52.4819C157.906 53.7052 158.881 55.2738 158.881 57.1878C158.939 57.9 158.777 58.5578 158.394 59.1614C158.011 59.765 157.485 60.1929 156.815 60.445C155.459 60.8783 154.07 61.0598 152.648 60.9894H146.871L146.854 49.0842Z" fill="url(#paint8_linear_2_12)"/>
<path d="M167.568 48.3906L168.341 45.423H173.836C178.268 45.423 180.483 47.4716 180.483 51.5688C180.566 54.2159 179.664 56.4694 177.775 58.3291C175.878 60.1804 173.604 61.0584 170.953 60.963H168.218V49.0403H171.63V58.0043C173.258 57.9472 174.577 57.2799 175.586 56.0025C176.609 54.7702 177.108 53.3537 177.081 51.7532C177.124 50.8298 176.846 50.0162 176.245 49.3124C175.588 48.6595 174.797 48.3668 173.872 48.4345L167.568 48.3906Z" fill="#473941"/>
<path d="M192.353 58.0306L191.474 60.9894H182.277V45.4669H191.069L191.852 48.373H185.697V51.6127H191.307L190.427 54.4661H185.68V58.0394L192.353 58.0306Z" fill="#473941"/>
<path d="M202.807 57.6004C202.91 58.8806 202.389 59.8113 201.242 60.3923C200.157 60.8395 199.028 61.0298 197.857 60.963H194.437L193.557 57.9165H197.663C197.957 57.9239 198.221 57.839 198.455 57.6619C198.688 57.4893 198.799 57.2581 198.789 56.9683C198.765 56.6273 198.633 56.3346 198.393 56.0903L194.665 51.7444C193.924 50.9103 193.555 49.9358 193.557 48.8208C193.459 47.6723 193.881 46.7651 194.823 46.0991C195.788 45.5931 196.814 45.3824 197.901 45.4669H201.523L202.297 48.4784H198.657C197.874 48.4784 197.479 48.7681 197.479 49.3563C197.519 49.7335 197.674 50.0554 197.945 50.3221L201.356 54.2466C202.253 55.186 202.737 56.3039 202.807 57.6004Z" fill="#473941"/>
<path d="M208.144 60.9894H204.627V45.4669H208.144V60.9894Z" fill="#473941"/>
<path d="M221.604 45.4669L222.484 48.4784H217.27C214.796 48.4784 213.559 49.5963 213.559 51.8322C213.536 53.4285 214.061 54.8186 215.133 56.0025C216.227 57.2 217.584 57.8497 219.204 57.9516V53.8866H217.208V50.9893H222.484V60.9894H220.101C217.375 61.102 214.998 60.2475 212.97 58.4257C210.982 56.5249 210.044 54.2012 210.157 51.4547C210.157 47.4336 212.355 45.423 216.751 45.423L221.604 45.4669Z" fill="#473941"/>
<path d="M237.026 60.9894H233.658V57.3107L228.638 50.5679V60.9894H225.227V45.4669H228.638L233.658 52.1746V45.4669H237.026V60.9894Z" fill="#473941"/>
<path d="M119.396 78.9349H115.465L114.656 80.7786H113.566L116.916 73.4037H117.954L121.312 80.7786H120.204L119.396 78.9349ZM119.026 78.0569L117.452 74.4397L115.861 78.0569H119.026Z" fill="#473941"/>
<path d="M127.625 75.7566C128.096 76.2688 128.307 76.8717 128.258 77.5652V80.7786H127.238V77.6794C127.275 77.22 127.146 76.8132 126.851 76.459C126.54 76.1578 126.167 76.0202 125.735 76.0464C125.232 76.0212 124.798 76.1822 124.433 76.5292C124.081 76.9186 123.922 77.3752 123.959 77.8989V80.7786H122.948V75.1947H123.915V76.0727C124.145 75.7676 124.438 75.5452 124.794 75.4054C125.174 75.2465 125.569 75.1704 125.981 75.1772C126.608 75.1456 127.156 75.3387 127.625 75.7566Z" fill="#473941"/>
<path d="M136.197 75.1947V80.0235C136.269 80.8497 136.026 81.5696 135.468 82.1833C134.84 82.713 134.116 82.9472 133.296 82.8857C132.783 82.8899 132.282 82.8167 131.792 82.6662C131.356 82.5544 130.969 82.3496 130.632 82.0517L131.115 81.2703C131.401 81.5144 131.724 81.6929 132.083 81.8058C132.467 81.9376 132.863 82.0019 133.27 81.999C133.818 82.0464 134.302 81.8913 134.72 81.5336C135.073 81.1308 135.229 80.6625 135.186 80.1289V79.7075C134.948 79.9986 134.655 80.2152 134.307 80.3572C133.427 80.7042 132.565 80.6632 131.722 80.2343C131.291 80.0086 130.951 79.6867 130.702 79.2685C130.174 78.332 130.174 77.3955 130.702 76.459C130.951 76.0431 131.291 75.7241 131.722 75.502C132.179 75.2733 132.662 75.1621 133.173 75.1684C133.581 75.167 133.973 75.2431 134.351 75.3967C134.703 75.5492 134.996 75.7775 135.23 76.0815V75.2035L136.197 75.1947ZM134.272 79.4265C134.56 79.2762 134.788 79.0625 134.958 78.7856C135.128 78.4925 135.21 78.1764 135.204 77.8374C135.224 77.3199 135.045 76.8839 134.667 76.5292C134.266 76.1955 133.805 76.0286 133.283 76.0286C132.761 76.0286 132.299 76.1955 131.898 76.5292C131.524 76.8853 131.342 77.3214 131.353 77.8374C131.341 78.1929 131.426 78.5236 131.608 78.8295C131.771 79.1124 132 79.3261 132.294 79.4704C132.602 79.6331 132.93 79.7121 133.278 79.7075C133.634 79.7016 133.966 79.6079 134.272 79.4265Z" fill="#473941"/>
<path d="M143.829 78.3203H139.292C139.344 78.8057 139.561 79.2008 139.943 79.5055C140.348 79.8223 140.808 79.9715 141.323 79.9533C141.964 79.9812 142.5 79.7588 142.932 79.286L143.495 79.9357C143.233 80.2378 142.917 80.4632 142.545 80.6118C142.141 80.7694 141.722 80.8455 141.288 80.84C140.734 80.849 140.209 80.7291 139.714 80.4801C139.261 80.2453 138.909 79.9058 138.659 79.4616C138.398 79.0045 138.272 78.5128 138.281 77.9867C138.275 77.4669 138.395 76.9782 138.641 76.5204C138.883 76.0903 139.217 75.7508 139.644 75.502C140.093 75.2561 140.574 75.1361 141.086 75.142C141.596 75.1348 142.073 75.2547 142.519 75.502C142.939 75.7513 143.264 76.0907 143.495 76.5204C143.744 76.9901 143.864 77.4906 143.855 78.0218C143.853 78.1218 143.844 78.2214 143.829 78.3203ZM139.872 76.4414C139.525 76.7511 139.332 77.1374 139.292 77.6004H142.879C142.842 77.1388 142.651 76.7525 142.308 76.4414C141.96 76.1301 141.553 75.9808 141.086 75.9937C140.629 75.9878 140.213 76.1371 139.872 76.4414Z" fill="#473941"/>
<path d="M145.957 72.9647H146.968V80.7786H145.957V72.9647Z" fill="#473941"/>
<path d="M149.605 73.9305C149.47 73.8048 149.405 73.6497 149.412 73.4652C149.408 73.2816 149.472 73.1265 149.605 72.9998C149.741 72.8637 149.905 72.7993 150.098 72.8067C150.285 72.7994 150.446 72.8609 150.581 72.991C150.719 73.1122 150.786 73.2644 150.783 73.4476C150.772 73.8928 150.543 74.1181 150.098 74.1236C149.907 74.1267 149.743 74.0623 149.605 73.9305ZM149.605 75.1947H150.616V80.7786H149.605V75.1947Z" fill="#473941"/>
<path d="M157.896 75.7566C158.364 76.2703 158.572 76.8731 158.52 77.5652V80.7786H157.509V77.6794C157.54 77.2222 157.411 76.8154 157.122 76.459C156.811 76.1578 156.439 76.0202 156.006 76.0464C155.503 76.0213 155.069 76.1822 154.705 76.5293C154.352 76.9186 154.194 77.3752 154.23 77.8989V80.7786H153.219V75.1947H154.186V76.0727C154.4 75.7747 154.676 75.5522 155.012 75.4055C155.392 75.2483 155.788 75.1722 156.199 75.1772C156.846 75.1327 157.412 75.3259 157.896 75.7566Z" fill="#473941"/>
<path d="M164.93 75.7127C165.392 76.1844 165.597 76.7492 165.545 77.4072V80.7786H164.587V80.0411C164.407 80.3127 164.167 80.5117 163.866 80.6381C163.507 80.7802 163.135 80.8476 162.749 80.84C162.195 80.8675 161.694 80.7182 161.246 80.3923C160.879 80.0803 160.696 79.6837 160.696 79.2026C160.696 78.7215 160.879 78.325 161.246 78.013C161.761 77.6623 162.33 77.5131 162.952 77.5652H164.561V77.3633C164.582 76.9742 164.456 76.6406 164.182 76.3624C163.851 76.1048 163.476 75.9906 163.057 76.02C162.726 76.0203 162.404 76.073 162.09 76.178C161.797 76.2766 161.53 76.4229 161.29 76.617L160.868 75.862C161.176 75.6163 161.519 75.4378 161.897 75.3264C162.312 75.2021 162.737 75.1407 163.172 75.142C163.832 75.1027 164.418 75.293 164.93 75.7127ZM163.919 79.804C164.204 79.6288 164.41 79.3859 164.534 79.0753V78.2939H162.969C162.09 78.2939 161.686 78.5837 161.686 79.1719C161.676 79.4519 161.784 79.6743 162.011 79.8392C162.279 80.01 162.572 80.089 162.89 80.0762C163.251 80.0833 163.611 79.9926 163.919 79.804Z" fill="#473941"/>
<path d="M176.87 77.0736H177.881V79.9533C177.5 80.2652 177.075 80.4964 176.606 80.6469C176.112 80.8098 175.605 80.8917 175.085 80.8927C174.372 80.9013 173.7 80.7374 173.072 80.4011C171.747 79.686 171.108 78.5768 171.155 77.0736C171.144 76.3793 171.314 75.7325 171.665 75.1333C172.007 74.5493 172.479 74.1016 173.08 73.79C173.715 73.4518 174.392 73.2879 175.111 73.2983C175.666 73.2912 176.203 73.3878 176.72 73.5881C177.198 73.7863 177.609 74.0789 177.951 74.466L177.292 75.1157C176.702 74.5251 175.99 74.2325 175.155 74.2377C174.616 74.2291 174.109 74.352 173.634 74.6065C173.191 74.8452 172.842 75.1818 172.588 75.6162C172.179 76.3008 172.077 77.0283 172.282 77.7987C172.488 78.5691 172.938 79.1498 173.634 79.5407C174.103 79.794 174.604 79.9169 175.138 79.9094C175.772 79.9299 176.358 79.7719 176.896 79.4353L176.87 77.0736Z" fill="#473941"/>
<path d="M184.273 75.7127C184.73 76.1862 184.935 76.751 184.888 77.4072V80.7786H183.93V80.0411C183.746 80.3129 183.503 80.5119 183.2 80.6381C182.845 80.781 182.475 80.8483 182.092 80.8401C181.538 80.8675 181.037 80.7182 180.589 80.3923C180.222 80.0803 180.039 79.6837 180.039 79.2027C180.039 78.7215 180.222 78.325 180.589 78.013C181.104 77.6624 181.673 77.5131 182.295 77.5652H183.904V77.3633C183.926 76.9713 183.797 76.6377 183.517 76.3624C183.189 76.1026 182.817 75.9885 182.4 76.02C182.069 76.0203 181.747 76.073 181.433 76.1781C181.139 76.2747 180.872 76.421 180.633 76.617L180.211 75.862C180.504 75.6165 180.832 75.4351 181.196 75.3177C181.626 75.1911 182.066 75.1326 182.514 75.1421C183.174 75.1055 183.76 75.2957 184.273 75.7127ZM183.262 79.804C183.547 79.6289 183.752 79.386 183.877 79.0753V78.294H182.312C181.433 78.294 181.028 78.5837 181.028 79.1719C181.018 79.4519 181.127 79.6743 181.354 79.8392C181.622 80.01 181.915 80.089 182.233 80.0762C182.597 80.085 182.952 79.9943 183.262 79.804Z" fill="#473941"/>
<path d="M191.852 75.502C192.285 75.7389 192.622 76.0725 192.863 76.5029C193.112 76.9661 193.233 77.4607 193.223 77.9867C193.233 78.5153 193.112 79.0128 192.863 79.4792C192.622 79.9096 192.285 80.2432 191.852 80.4801C191.401 80.7305 190.917 80.8505 190.401 80.84C190.015 80.8435 189.646 80.7674 189.293 80.6118C188.943 80.4609 188.65 80.2355 188.414 79.9357V82.8242H187.394V75.1947H188.37V76.0727C188.599 75.7586 188.892 75.5245 189.249 75.3703C189.613 75.2065 189.994 75.1274 190.392 75.1333C190.911 75.1282 191.398 75.2511 191.852 75.502ZM191.307 79.7075C191.596 79.5379 191.821 79.3067 191.984 79.0139C192.333 78.3291 192.333 77.6442 191.984 76.9594C191.821 76.6666 191.596 76.4354 191.307 76.2658C191.005 76.1027 190.683 76.0237 190.339 76.0288C189.998 76.0234 189.678 76.1053 189.381 76.2746C189.093 76.4424 188.87 76.6736 188.713 76.9682C188.536 77.2847 188.451 77.6242 188.458 77.9867C188.454 78.3496 188.536 78.692 188.704 79.0139C188.863 79.3097 189.089 79.5409 189.381 79.7075C190.023 80.0584 190.665 80.0584 191.307 79.7075Z" fill="#473941"/>
<path d="M196.213 80.4713C195.767 80.2335 195.421 79.894 195.175 79.4529C194.636 78.4754 194.636 77.4979 195.175 76.5205C195.421 76.0793 195.767 75.7399 196.213 75.502C197.209 74.9925 198.206 74.9925 199.202 75.502C199.643 75.7445 199.989 76.084 200.239 76.5205C200.765 77.4979 200.765 78.4754 200.239 79.4529C199.994 79.8868 199.654 80.2263 199.22 80.4713C198.223 80.995 197.209 80.995 196.213 80.4713ZM198.674 79.7075C198.963 79.5397 199.186 79.3085 199.343 79.0139C199.692 78.3291 199.692 77.6443 199.343 76.9594C199.186 76.6649 198.963 76.4337 198.674 76.2659C198.373 76.1015 198.051 76.0225 197.707 76.0288C197.364 76.0237 197.042 76.1027 196.74 76.2659C196.451 76.4337 196.229 76.6649 196.072 76.9594C195.711 77.6443 195.711 78.3291 196.072 79.0139C196.229 79.3085 196.451 79.5397 196.74 79.7075C197.04 79.878 197.362 79.9599 197.707 79.9533C198.052 79.9608 198.375 79.8789 198.674 79.7075Z" fill="#473941"/>
<path d="M207.379 75.7566C207.842 76.2717 208.05 76.8746 208.003 77.5652V80.7786H206.992V77.6794C207.022 77.2222 206.893 76.8154 206.605 76.459C206.291 76.1563 205.916 76.0188 205.48 76.0464C204.98 76.0238 204.549 76.1848 204.187 76.5293C203.835 76.9186 203.676 77.3752 203.712 77.8989V80.7786H202.736V75.1947H203.704V76.0727C203.918 75.7747 204.193 75.5522 204.53 75.4054C204.91 75.2483 205.306 75.1722 205.717 75.1772C206.351 75.1427 206.904 75.3358 207.379 75.7566Z" fill="#473941"/>
<path d="M215.415 75.1947L212.698 81.3405C212.515 81.8196 212.222 82.2176 211.819 82.5345C211.475 82.7824 211.091 82.8995 210.667 82.8857C210.393 82.8869 210.126 82.843 209.867 82.754C209.623 82.6744 209.409 82.5456 209.225 82.3677L209.656 81.6126C209.936 81.8889 210.273 82.0265 210.667 82.0253C210.896 82.0301 211.101 81.9628 211.282 81.8234C211.484 81.636 211.634 81.4136 211.731 81.1561L211.907 80.7698L209.436 75.1947H210.491L212.487 79.7075L214.421 75.2386L215.415 75.1947Z" fill="#473941"/>
<path d="M222.255 75.1947V80.7786H221.297V79.9006C221.089 80.1931 220.822 80.4155 220.497 80.5679C220.148 80.7299 219.782 80.8089 219.398 80.8049C218.726 80.8424 218.14 80.6375 217.639 80.1904C217.16 79.6779 216.946 79.0721 216.997 78.373V75.1947H218.008V78.2939C217.975 78.7545 218.104 79.1642 218.395 79.5231C218.71 79.8258 219.085 79.9633 219.521 79.9357C220.014 79.9606 220.436 79.7997 220.787 79.4529C221.125 79.0583 221.278 78.6018 221.244 78.0832V75.1947H222.255Z" fill="#473941"/>
<path d="M227.047 78.1798L225.886 79.2509V80.7786H224.875V72.9647H225.886V77.9516L228.937 75.1684H230.159L227.812 77.4774L230.397 80.7523H229.113L227.047 78.1798Z" fill="#473941"/>
<defs>
<linearGradient id="paint0_linear_2_12" x1="77.1199" y1="101.147" x2="41.8459" y2="25.6144" gradientUnits="userSpaceOnUse">
<stop stop-color="#1EC4DC"/>
<stop offset="0.29" stop-color="#48DAE6"/>
<stop offset="0.6" stop-color="#70EEEE"/>
<stop offset="0.85" stop-color="#88FAF4"/>
<stop offset="1" stop-color="#91FFF6"/>
</linearGradient>
<linearGradient id="paint1_linear_2_12" x1="67.5614" y1="97.3709" x2="20.3587" y2="-3.68885" gradientUnits="userSpaceOnUse">
<stop stop-color="#0478AC"/>
<stop offset="0.07" stop-color="#0A84B1"/>
<stop offset="0.34" stop-color="#1CACC3"/>
<stop offset="0.55" stop-color="#27C4CD"/>
<stop offset="0.68" stop-color="#2BCDD1"/>
</linearGradient>
<linearGradient id="paint2_linear_2_12" x1="68.4318" y1="74.3927" x2="64.915" y2="67.0178" gradientUnits="userSpaceOnUse">
<stop stop-color="#F49A10"/>
<stop offset="1" stop-color="#FFDC37"/>
</linearGradient>
<linearGradient id="paint3_linear_2_12" x1="68.4318" y1="74.3927" x2="65.8294" y2="68.9318" gradientUnits="userSpaceOnUse">
<stop stop-color="#F4C804"/>
<stop offset="1" stop-color="#FFFF7E"/>
</linearGradient>
<linearGradient id="paint4_linear_2_12" x1="80.4683" y1="79.7572" x2="67.9659" y2="53.506" gradientUnits="userSpaceOnUse">
<stop stop-color="#F49A10"/>
<stop offset="1" stop-color="#FFDC37"/>
</linearGradient>
<linearGradient id="paint5_linear_2_12" x1="80.4683" y1="79.7572" x2="67.9658" y2="53.506" gradientUnits="userSpaceOnUse">
<stop stop-color="#F4C804"/>
<stop offset="1" stop-color="#FFFF7E"/>
</linearGradient>
<linearGradient id="paint6_linear_2_12" x1="-346.304" y1="79.7486" x2="-360.626" y2="49.6519" gradientUnits="userSpaceOnUse">
<stop stop-color="#F49A10"/>
<stop offset="1" stop-color="#FFDC37"/>
</linearGradient>
<linearGradient id="paint7_linear_2_12" x1="-346.91" y1="80.0295" x2="-361.242" y2="49.9417" gradientUnits="userSpaceOnUse">
<stop stop-color="#F4C804"/>
<stop offset="1" stop-color="#FFFF7E"/>
</linearGradient>
<linearGradient id="paint8_linear_2_12" x1="-453.133" y1="60.9894" x2="-453.133" y2="45.4231" gradientUnits="userSpaceOnUse">
<stop stop-color="#F49A10"/>
<stop offset="1" stop-color="#FFDC37"/>
</linearGradient>
</defs>
</svg>
