<svg width="43" height="43" viewBox="0 0 43 43" fill="none" xmlns="http://www.w3.org/2000/svg">
<path d="M21.5 43C33.3741 43 43 33.3741 43 21.5C43 9.62588 33.3741 0 21.5 0C9.62588 0 0 9.62588 0 21.5C0 33.3741 9.62588 43 21.5 43Z" fill="url(#paint0_linear_2_65)"/>
<path d="M27.8335 15.0774C26.7046 15.4924 12.7758 20.8415 12.57 20.9411C11.8894 21.2632 11.8097 21.6882 12.3774 21.977C12.4338 22.0069 13.3735 22.3057 14.4725 22.6477L16.468 23.2686L20.9969 20.4331C23.4905 18.8759 25.579 17.5809 25.6388 17.561C25.7948 17.5079 25.9276 17.5112 25.9874 17.5743C26.0305 17.6174 26.0339 17.6374 25.9973 17.7005C25.9774 17.7436 24.3206 19.2477 22.3218 21.0407C20.323 22.837 18.6794 24.3178 18.6727 24.3345C18.6661 24.3511 18.5997 25.2475 18.5233 26.3266L18.3839 28.2856L18.5366 28.2657C18.6196 28.2557 18.7491 28.2126 18.8254 28.1694C18.9051 28.1296 19.4231 27.6581 19.9842 27.1235C20.5421 26.589 21.0202 26.1407 21.0434 26.1341C21.0666 26.1241 21.9565 26.755 23.0223 27.5352C24.0848 28.3155 25.0378 28.9895 25.1407 29.036C25.4097 29.1622 25.7085 29.1721 25.9044 29.0692C26.0803 28.9762 26.2498 28.7438 26.3227 28.5014C26.3494 28.4085 26.9602 25.5962 27.6741 22.2526C28.8661 16.6878 28.9757 16.1499 28.9757 15.861C28.9757 15.5887 28.9657 15.5223 28.8927 15.3796C28.8429 15.2766 28.7532 15.1737 28.6669 15.1139C28.4709 14.9778 28.1456 14.9612 27.8335 15.0774Z" fill="white"/>
<defs>
<linearGradient id="paint0_linear_2_65" x1="43" y1="43" x2="5.126e-06" y2="5.126e-06" gradientUnits="userSpaceOnUse">
<stop stop-color="#A900FD"/>
<stop offset="0.877863" stop-color="#E71B7B"/>
</linearGradient>
</defs>
</svg>
