<svg width="594" height="513" viewBox="0 0 594 513" fill="none" xmlns="http://www.w3.org/2000/svg">
<path fill-rule="evenodd" clip-rule="evenodd" d="M519.562 408.828L91.3264 409C91.3264 409 -17.5962 381.362 2.46649 272.705C10.9033 226.879 52.3733 207.311 107.569 196.986C152.419 188.594 152.829 174.689 148.623 161.812C145.053 150.874 130.452 135.952 124.229 112.352C118.398 90.1911 124.824 24.5059 187.826 5.29515C236.394 -9.5322 292.143 8.56633 320.637 37.4122C347.702 64.7711 342.478 88.1451 426.079 82.3998C493.513 77.7785 531.985 126.816 542.308 158.089C547.871 174.974 548.692 200.721 522.781 235.901C509.179 254.339 522.989 273.597 569.784 292.683C606.857 307.796 606 408.828 519.562 408.828Z" fill="url(#paint0_linear_2_89)"/>
<path fill-rule="evenodd" clip-rule="evenodd" d="M495.5 409H119.405C119.405 409 23.7164 383.068 41.3392 281.045C48.7772 238.026 85.1824 219.655 133.675 209.957C173.077 202.079 173.433 189.026 169.729 176.934C166.578 166.669 153.765 152.655 148.325 130.507C143.2 109.701 148.836 48.0368 204.214 29.9708C246.88 16.0527 295.854 33.0385 320.885 60.1226C344.667 85.8401 340.072 107.774 413.518 102.39C472.754 98.0512 506.567 144.085 515.622 173.449C520.51 189.295 521.229 213.472 498.463 246.495C486.519 263.803 498.654 281.887 539.779 299.798C572.344 313.991 573.5 409 495.5 409Z" fill="url(#paint1_linear_2_89)"/>
<path fill-rule="evenodd" clip-rule="evenodd" d="M359.907 107.559L433.331 122.176L393.826 318.29L320.402 303.673L359.907 107.559Z" fill="white"/>
<path fill-rule="evenodd" clip-rule="evenodd" d="M366.904 119.439L422.36 130.497L414.281 170.653L358.819 159.618L366.904 119.439ZM339.578 255.095L395.034 266.136L386.942 306.31L331.48 295.269L339.578 255.095ZM348.698 209.809L340.601 249.989L396.063 261.023L404.155 220.849L348.698 209.809ZM357.76 164.725L349.686 204.893L405.148 215.933L413.24 175.759L357.76 164.725Z" fill="url(#paint2_linear_2_89)"/>
<path fill-rule="evenodd" clip-rule="evenodd" d="M469.796 141.519L523.36 193.841L383.289 336.628L329.725 284.3L469.796 141.519Z" fill="url(#paint3_linear_2_89)"/>
<path fill-rule="evenodd" clip-rule="evenodd" d="M469.177 155.292L509.635 194.811L480.916 224.063L440.459 184.544L469.177 155.292ZM372.289 254.09L412.746 293.609L384.051 322.861L343.594 283.342L372.289 254.09ZM404.636 221.117L375.936 250.37L416.393 289.889L445.087 260.636L404.636 221.117ZM436.835 188.288L408.141 217.51L448.598 257.036L477.299 227.783L436.835 188.288Z" fill="url(#paint4_linear_2_89)"/>
<path fill-rule="evenodd" clip-rule="evenodd" d="M543.886 224.647L576.246 292.18L395.7 378.212L363.34 310.678L543.886 224.647Z" fill="white"/>
<path fill-rule="evenodd" clip-rule="evenodd" d="M538.579 237.371L501.591 254.994L506.398 265.023L508.314 269.016L526.038 306.006L563.02 288.377L538.579 237.371ZM413.686 296.882L376.697 314.505L401.138 365.517L438.127 347.888L413.686 296.882ZM461.735 290.276L460.598 287.895L455.38 277.004L418.392 294.627L442.839 345.65L479.827 328.021L461.735 290.276ZM503.673 271.409L501.626 267.13L496.867 257.238L459.878 274.861L464.953 285.449L466.375 288.425L484.319 325.879L521.308 308.25L503.673 271.409Z" fill="url(#paint5_linear_2_89)"/>
<path fill-rule="evenodd" clip-rule="evenodd" d="M392 387.997L391.922 387.884L392.125 387.788L392.613 387.515C394.124 386.699 395.528 385.729 396.825 384.604C400.603 380.771 404.976 371.933 403.649 350.578C401.692 327.325 394.017 300.185 390.215 293.097C388.579 290.05 387.169 287.187 385.657 284.431C382.92 279.845 379.768 275.564 376.204 271.588C362.674 258.613 348.431 251.501 336.716 249.179C328.042 246.894 316.625 247.989 316.619 247.989L297.479 217.326C297.479 217.326 293.213 218.85 287.799 220.849L287.537 220.945L286.906 221.177L285.717 221.599L285.58 221.647L285.496 221.677L285.086 221.825L283.474 222.421L283.17 222.528L282.932 222.617L282.593 222.724L282.313 222.825L282.093 222.903L281.373 223.165L281.183 223.236L281.016 223.295L280.885 223.343L280.713 223.409H280.647C283.896 230.134 287.983 238.704 288.311 246.62V246.555C288.311 246.721 288.311 246.888 288.311 247.055C288.307 247.082 288.307 247.11 288.311 247.138C288.291 248.385 287.997 249.594 287.431 250.705C286.865 251.816 286.083 252.746 285.086 253.494C282.182 255.845 279.071 256.887 272.818 260.428L272.919 260.464L272.818 260.428C241.142 277.498 238.013 347.906 238.013 347.906L254.963 401.174H401.025L393.695 390.389L392 387.997Z" fill="url(#paint6_linear_2_89)"/>
<path fill-rule="evenodd" clip-rule="evenodd" d="M254.309 280.7C254.309 280.7 240.761 301.816 237.971 347.954L253.642 392.306L262.513 392.698C262.513 392.698 272.074 357.756 270.843 349.114C270.438 346.269 270.491 341.972 268.689 337.806C266.886 333.64 255.368 325.873 262.382 306.458C267.517 292.145 254.309 280.7 254.309 280.7Z" fill="url(#paint7_linear_2_89)"/>
<path fill-rule="evenodd" clip-rule="evenodd" d="M336.668 249.096C336.668 249.096 330.659 269.552 309.39 274.462C288.12 279.372 272.776 260.452 272.776 260.452C279.029 256.881 282.123 255.816 285.026 253.471C286.104 252.66 286.929 251.643 287.501 250.421C288.073 249.199 288.325 247.914 288.257 246.567C287.93 238.633 283.848 230.063 280.594 223.355L287.733 220.754C293.147 218.754 297.413 217.231 297.413 217.231L316.553 247.894C316.553 247.894 328.012 246.805 336.668 249.096Z" fill="url(#paint8_linear_2_89)"/>
<path fill-rule="evenodd" clip-rule="evenodd" d="M300.341 373.064C293.918 376.03 287.175 377.707 280.112 378.093C280.112 378.093 270.117 395.353 270.117 391.836C270.117 351.668 299.722 356.548 304.945 357.661C304.916 357.661 299.954 362.5 300.341 373.064Z" fill="url(#paint9_linear_2_89)"/>
<path fill-rule="evenodd" clip-rule="evenodd" d="M397.152 384.634C395.855 385.759 394.451 386.729 392.94 387.544L392.452 387.818L392.25 387.866L392.327 388.026C376.221 396.775 357.867 396.079 357.867 396.079C319.266 397.359 314.863 388.145 311.692 384.979C308.521 381.813 306.855 374.998 306.855 374.998L300.668 373.094C300.668 373.094 300.221 363.261 305.243 357.691L312.162 359.042C312.162 359.042 318.974 349.162 333.878 352.727C348.782 356.292 354.642 358.512 361.776 358.905C365.583 359.113 366.869 358.345 366.869 358.345C345.617 318.511 343.445 268.671 371.033 267.159C374.106 269.99 376.966 273.021 379.613 276.254C382.253 279.568 384.633 283.059 386.752 286.729C388.448 289.544 391.024 294.906 391.173 295.263C396.396 307.982 401.989 327.319 403.946 350.572C405.303 371.933 400.93 380.771 397.152 384.634Z" fill="url(#paint10_linear_2_89)"/>
<path fill-rule="evenodd" clip-rule="evenodd" d="M247.193 297.001C250.923 285.973 254.332 280.7 254.332 280.7C259.033 271.968 265.042 264.63 272.776 260.464C279.029 256.893 282.123 255.827 285.026 253.483C286.104 252.672 286.929 251.655 287.501 250.433C288.073 249.211 288.325 247.926 288.257 246.579C288.075 243.488 287.506 240.47 286.549 237.526C284.985 232.503 282.635 227.593 280.6 223.403L287.739 220.748C293.153 218.748 297.419 217.225 297.419 217.225L316.559 247.888C316.559 247.888 327.982 246.817 336.657 249.078C348.371 251.399 362.645 258.553 376.174 271.528C379.732 275.505 382.878 279.787 385.61 284.372C386.514 286.02 387.395 287.711 388.281 289.449C405.499 225.724 278.036 150.459 258.003 154.899C237.227 159.493 229.445 179.896 231.147 201.12C232.849 222.343 253.44 225.765 241.69 250.15C231.855 270.558 242.755 290.306 247.193 297.001Z" fill="url(#paint11_linear_2_89)"/>
<path fill-rule="evenodd" clip-rule="evenodd" d="M312.751 199.048C312.703 198.994 312.645 198.953 312.579 198.923C305.969 196.114 302.197 194.162 295.206 191.353C284.062 186.865 275.263 178.378 269.623 168.141C268.365 168.599 267.147 169.147 265.97 169.784C250.977 177.985 245.914 199.048 254.666 216.802C263.417 234.556 282.67 242.341 297.669 234.14C309.366 227.73 315.018 213.463 312.751 199.048Z" fill="url(#paint12_linear_2_89)"/>
<path fill-rule="evenodd" clip-rule="evenodd" d="M391.619 296.251C429.994 264.41 410.473 217.689 390.542 208.464C370.611 199.239 357.141 206.678 354.404 192.99C338.049 111.237 262.483 140.763 262.483 140.763C262.483 161.928 274.977 183.223 295.206 191.353C302.197 194.168 305.969 196.114 312.579 198.923C313.09 199.144 313.174 200.334 313.299 201.959C313.626 205.673 313.299 211.922 311.936 216.153C310.934 219.37 309.522 222.396 307.7 225.23C305.743 228.206 304.374 229.075 304.469 229.223L316.845 248.12C316.845 248.12 368.029 242.894 391.619 296.251Z" fill="url(#paint13_linear_2_89)"/>
<g opacity="0.5">
<path d="M144.729 225.908C142.945 225.908 141.177 226.083 139.427 226.431C137.677 226.779 135.978 227.295 134.329 227.978C132.68 228.662 131.114 229.499 129.63 230.491C128.146 231.483 126.774 232.61 125.512 233.872C124.25 235.134 123.123 236.508 122.132 237.992C121.141 239.476 120.303 241.043 119.62 242.692C118.938 244.341 118.422 246.041 118.074 247.792C117.726 249.543 117.552 251.311 117.552 253.096C117.552 254.881 117.726 256.649 118.074 258.4C118.423 260.151 118.938 261.851 119.621 263.5C120.304 265.149 121.141 266.716 122.133 268.2C123.124 269.685 124.251 271.058 125.513 272.32C126.774 273.582 128.147 274.709 129.631 275.701C131.115 276.693 132.681 277.53 134.329 278.214C135.978 278.897 137.677 279.412 139.428 279.761C141.178 280.109 142.945 280.283 144.729 280.283C146.514 280.283 148.281 280.109 150.032 279.76C151.782 279.412 153.481 278.896 155.13 278.213C156.779 277.53 158.345 276.693 159.829 275.701C161.312 274.71 162.685 273.583 163.947 272.321C165.209 271.059 166.335 269.686 167.327 268.202C168.318 266.718 169.155 265.152 169.838 263.503C170.521 261.854 171.037 260.155 171.385 258.404C171.733 256.654 171.907 254.886 171.907 253.102C171.906 251.317 171.73 249.549 171.381 247.799C171.032 246.048 170.516 244.349 169.832 242.7C169.149 241.052 168.311 239.485 167.32 238.001C166.328 236.517 165.202 235.144 163.94 233.882C162.679 232.62 161.307 231.493 159.823 230.501C158.34 229.508 156.775 228.67 155.127 227.986C153.479 227.302 151.78 226.785 150.03 226.436C148.281 226.086 146.514 225.91 144.729 225.908ZM144.729 266.975C143.817 266.975 142.913 266.886 142.018 266.708C141.123 266.53 140.254 266.266 139.411 265.916C138.568 265.567 137.767 265.139 137.009 264.631C136.25 264.124 135.548 263.547 134.903 262.902C134.258 262.256 133.682 261.554 133.176 260.794C132.669 260.035 132.241 259.234 131.892 258.391C131.544 257.547 131.28 256.678 131.103 255.782C130.925 254.887 130.837 253.983 130.837 253.07C130.838 252.157 130.927 251.253 131.106 250.358C131.284 249.463 131.549 248.593 131.898 247.75C132.248 246.907 132.677 246.106 133.184 245.348C133.692 244.589 134.269 243.887 134.915 243.243C135.56 242.598 136.263 242.022 137.022 241.516C137.781 241.009 138.583 240.582 139.426 240.233C140.269 239.885 141.139 239.622 142.034 239.445C142.929 239.268 143.833 239.18 144.745 239.181C145.658 239.182 146.561 239.272 147.456 239.451C148.351 239.63 149.22 239.895 150.062 240.245C150.905 240.596 151.705 241.025 152.463 241.533C153.221 242.041 153.922 242.619 154.567 243.265C155.211 243.911 155.786 244.614 156.292 245.374C156.798 246.134 157.225 246.936 157.573 247.78C157.92 248.624 158.183 249.493 158.359 250.389C158.536 251.285 158.623 252.189 158.622 253.102C158.62 254.014 158.53 254.917 158.351 255.811C158.172 256.705 157.907 257.573 157.558 258.415C157.208 259.257 156.78 260.057 156.273 260.815C155.766 261.573 155.19 262.275 154.545 262.919C153.901 263.564 153.199 264.14 152.442 264.647C151.684 265.153 150.884 265.581 150.042 265.931C149.2 266.28 148.332 266.544 147.438 266.723C146.544 266.902 145.641 266.974 144.729 266.975ZM156.956 253.102C156.956 253.905 156.877 254.7 156.721 255.488C156.564 256.275 156.332 257.04 156.025 257.782C155.718 258.524 155.341 259.229 154.895 259.897C154.449 260.564 153.942 261.182 153.375 261.75C152.807 262.318 152.189 262.825 151.522 263.271C150.854 263.717 150.15 264.094 149.408 264.401C148.667 264.709 147.902 264.941 147.115 265.097C146.327 265.254 145.532 265.332 144.729 265.332C143.927 265.332 143.131 265.254 142.344 265.097C141.557 264.941 140.792 264.709 140.051 264.401C139.309 264.094 138.604 263.717 137.937 263.271C137.269 262.825 136.652 262.318 136.084 261.75C135.516 261.182 135.01 260.564 134.563 259.897C134.118 259.229 133.741 258.524 133.434 257.782C133.126 257.04 132.895 256.275 132.738 255.488C132.581 254.7 132.503 253.905 132.503 253.102C132.503 252.298 132.581 251.503 132.738 250.715C132.895 249.928 133.126 249.163 133.434 248.421C133.741 247.679 134.118 246.974 134.563 246.307C135.01 245.639 135.516 245.021 136.084 244.453C136.652 243.885 137.269 243.378 137.937 242.932C138.604 242.486 139.309 242.109 140.051 241.802C140.792 241.495 141.557 241.263 142.344 241.106C143.131 240.949 143.927 240.871 144.729 240.871C145.532 240.872 146.327 240.951 147.114 241.108C147.901 241.265 148.665 241.497 149.406 241.805C150.148 242.113 150.852 242.49 151.519 242.936C152.186 243.382 152.804 243.889 153.371 244.457C153.939 245.024 154.446 245.642 154.892 246.309C155.338 246.977 155.714 247.681 156.022 248.423C156.329 249.165 156.562 249.929 156.719 250.716C156.876 251.504 156.955 252.299 156.956 253.102ZM201.762 252.816C201.762 242.603 188.328 243.359 185.103 240.764C183.205 239.234 182.051 235.854 182.271 233.39C182.676 228.813 191.63 219.832 184.764 212.963C177.803 206.006 168.95 215.07 164.422 215.499C163.02 215.595 161.669 215.375 160.369 214.839C159.069 214.304 157.955 213.508 157.027 212.452C154.195 209.059 154.195 196.037 144.331 196.037C134.217 196.037 134.389 209.25 131.7 212.559C130.81 213.588 129.736 214.364 128.48 214.888C127.224 215.411 125.918 215.627 124.56 215.535C120.271 215.136 110.924 205.774 103.874 212.827C96.6569 220.046 106.254 229.444 106.712 233.55C106.798 234.775 106.603 235.953 106.129 237.085C105.654 238.217 104.95 239.181 104.016 239.978C100.542 242.835 87.6968 242.871 87.6968 252.667C87.6968 262.356 100.054 262.19 103.654 265.243C104.745 266.221 105.566 267.389 106.115 268.748C106.663 270.108 106.884 271.518 106.777 272.98C106.367 277.265 97.0198 286.622 104.07 293.674C111.209 300.816 120.437 291.353 124.679 290.925C126.073 290.826 127.417 291.043 128.709 291.576C130.001 292.109 131.107 292.901 132.027 293.954C135.002 297.477 135.002 310.143 144.7 310.143C154.606 310.143 154.457 297.329 157.307 293.865C158.2 292.839 159.274 292.065 160.529 291.542C161.784 291.019 163.09 290.801 164.446 290.889C168.807 291.288 178.071 300.554 185.073 293.549C192.213 286.407 182.741 277.123 182.307 272.909C182.202 271.508 182.414 270.157 182.943 268.856C183.473 267.555 184.264 266.44 185.317 265.511C188.721 262.678 201.762 262.69 201.762 252.816ZM144.729 281.979C142.835 281.98 140.959 281.795 139.102 281.426C137.244 281.057 135.44 280.51 133.69 279.785C131.94 279.06 130.277 278.172 128.702 277.12C127.127 276.067 125.669 274.871 124.329 273.532C122.99 272.193 121.793 270.735 120.741 269.16C119.688 267.585 118.799 265.922 118.073 264.172C117.348 262.421 116.8 260.617 116.43 258.759C116.06 256.901 115.875 255.024 115.874 253.129C115.873 251.235 116.057 249.358 116.426 247.499C116.795 245.641 117.342 243.836 118.066 242.085C118.79 240.335 119.678 238.671 120.73 237.095C121.781 235.519 122.977 234.061 124.315 232.721C125.654 231.381 127.111 230.184 128.685 229.13C130.26 228.077 131.922 227.187 133.671 226.461C135.421 225.736 137.224 225.187 139.082 224.817C140.94 224.446 142.815 224.261 144.71 224.26C146.604 224.259 148.48 224.443 150.338 224.811C152.196 225.18 154 225.727 155.75 226.451C157.5 227.175 159.163 228.063 160.739 229.115C162.314 230.167 163.772 231.362 165.112 232.701C166.452 234.04 167.649 235.497 168.702 237.072C169.755 238.647 170.645 240.31 171.37 242.06C172.096 243.81 172.645 245.614 173.015 247.472C173.386 249.33 173.572 251.207 173.573 253.102C173.57 254.995 173.383 256.87 173.012 258.727C172.641 260.584 172.092 262.387 171.366 264.136C170.64 265.885 169.751 267.547 168.699 269.121C167.646 270.695 166.451 272.151 165.112 273.49C163.774 274.829 162.317 276.025 160.744 277.077C159.17 278.129 157.509 279.018 155.76 279.744C154.012 280.47 152.21 281.018 150.353 281.389C148.497 281.76 146.622 281.977 144.729 281.979Z" fill="url(#paint14_linear_2_89)"/>
</g>
<g opacity="0.45">
<path d="M94.878 129.541C94.253 129.768 93.656 130.054 93.088 130.399C92.519 130.744 91.99 131.141 91.499 131.591C91.009 132.04 90.567 132.533 90.174 133.069C89.781 133.606 89.444 134.176 89.163 134.779C88.883 135.382 88.664 136.006 88.506 136.652C88.348 137.299 88.255 137.954 88.227 138.619C88.198 139.283 88.235 139.944 88.337 140.601C88.439 141.259 88.604 141.9 88.833 142.524C89.061 143.149 89.348 143.746 89.694 144.314C90.04 144.882 90.438 145.411 90.888 145.9C91.338 146.39 91.831 146.831 92.369 147.223C92.906 147.615 93.476 147.951 94.079 148.231C94.682 148.51 95.307 148.728 95.953 148.885C96.6 149.041 97.255 149.133 97.919 149.16C98.584 149.187 99.244 149.149 99.901 149.046C100.558 148.943 101.199 148.776 101.823 148.547C102.447 148.317 103.042 148.029 103.61 147.682C104.177 147.335 104.705 146.936 105.193 146.484C105.682 146.033 106.122 145.539 106.513 145.001C106.904 144.463 107.238 143.892 107.517 143.287C107.795 142.683 108.012 142.058 108.167 141.411C108.322 140.764 108.413 140.109 108.439 139.444C108.464 138.779 108.425 138.118 108.321 137.462C108.216 136.805 108.049 136.164 107.818 135.54C107.589 134.92 107.301 134.327 106.955 133.763C106.609 133.198 106.212 132.673 105.763 132.187C105.314 131.701 104.822 131.263 104.288 130.873C103.753 130.483 103.185 130.149 102.585 129.871C101.985 129.592 101.363 129.375 100.72 129.219C100.077 129.063 99.425 128.97 98.764 128.942C98.103 128.914 97.445 128.95 96.792 129.051C96.138 129.152 95.5 129.315 94.878 129.541ZM100.125 143.825C99.482 144.061 98.818 144.164 98.134 144.135C97.449 144.106 96.797 143.947 96.176 143.658C95.555 143.369 95.013 142.972 94.55 142.467C94.087 141.962 93.738 141.387 93.504 140.743C93.27 140.099 93.168 139.435 93.199 138.75C93.229 138.066 93.39 137.413 93.68 136.793C93.97 136.172 94.368 135.631 94.874 135.169C95.38 134.707 95.955 134.359 96.599 134.126C97.244 133.894 97.908 133.793 98.592 133.825C99.276 133.857 99.928 134.019 100.548 134.311C101.168 134.602 101.708 135.002 102.169 135.509C102.63 136.016 102.976 136.592 103.207 137.237C103.441 137.881 103.542 138.545 103.512 139.229C103.481 139.914 103.321 140.566 103.031 141.187C102.74 141.807 102.343 142.349 101.837 142.811C101.332 143.273 100.769 143.592 100.125 143.825ZM102.612 137.451C102.819 138.016 102.91 138.598 102.885 139.199C102.861 139.8 102.722 140.373 102.469 140.919C102.217 141.464 101.869 141.941 101.427 142.348C100.985 142.756 100.481 143.063 99.917 143.27C99.353 143.477 98.77 143.568 98.169 143.544C97.569 143.519 96.996 143.38 96.45 143.127C95.905 142.875 95.428 142.527 95.021 142.085C94.614 141.642 94.307 141.139 94.1 140.574C93.893 140.01 93.801 139.427 93.826 138.826C93.851 138.226 93.989 137.652 94.242 137.107C94.494 136.561 94.842 136.084 95.284 135.677C95.726 135.269 96.229 134.962 96.793 134.755C97.358 134.548 97.941 134.456 98.542 134.481C99.142 134.505 99.716 134.644 100.261 134.897C100.807 135.15 101.283 135.498 101.691 135.94C102.098 136.383 102.405 136.886 102.612 137.451ZM118.188 132.219C116.885 128.648 112.239 129.839 110.769 129.345C109.817 128.989 109.2 128.322 108.919 127.345C108.479 125.702 110.448 121.429 107.176 119.917C103.903 118.406 101.94 122.667 100.417 123.399C99.406 123.852 98.414 123.813 97.442 123.28C96.02 122.459 94.354 117.923 90.897 119.185C87.441 120.447 89.113 125.059 88.607 126.553C88.231 127.557 87.529 128.209 86.5007 128.511C84.9539 128.922 80.5035 126.857 78.9448 130.214C77.386 133.57 81.9196 135.695 82.58 137.07C82.9745 137.95 82.9369 138.811 82.4669 139.653C81.6161 141.093 77.1479 142.748 78.3975 146.158C79.6469 149.569 83.9246 147.902 85.5369 148.497C86.6052 148.923 87.297 149.689 87.613 150.795C88.024 152.342 85.9594 156.794 89.315 158.353C92.67 159.913 94.723 155.449 96.145 154.782C97.146 154.333 98.128 154.373 99.09 154.901C100.571 155.746 102.196 160.157 105.575 158.919C108.954 157.681 107.36 153.205 107.884 151.64C108.265 150.636 108.971 149.983 110.002 149.682C111.572 149.265 115.981 151.306 117.528 147.974C119.075 144.641 114.618 142.552 113.928 141.135C113.466 140.126 113.5 139.134 114.029 138.159C114.886 136.731 119.449 135.659 118.188 132.219ZM102.017 149.063C101.357 149.306 100.68 149.482 99.985 149.591C99.29 149.7 98.591 149.741 97.888 149.712C97.185 149.684 96.492 149.587 95.808 149.422C95.124 149.257 94.463 149.027 93.825 148.731C93.186 148.436 92.583 148.081 92.014 147.667C91.446 147.253 90.923 146.787 90.446 146.269C89.97 145.752 89.548 145.193 89.181 144.592C88.815 143.992 88.51 143.361 88.268 142.701C88.025 142.04 87.849 141.362 87.74 140.667C87.631 139.972 87.591 139.273 87.62 138.57C87.649 137.867 87.746 137.173 87.911 136.489C88.077 135.805 88.307 135.144 88.603 134.506C88.899 133.867 89.254 133.264 89.668 132.695C90.083 132.127 90.549 131.604 91.066 131.127C91.584 130.651 92.143 130.229 92.743 129.863C93.344 129.496 93.974 129.192 94.634 128.95C95.295 128.707 95.973 128.532 96.668 128.423C97.363 128.315 98.062 128.275 98.764 128.304C99.467 128.333 100.16 128.431 100.844 128.597C101.528 128.763 102.188 128.993 102.827 129.29C103.465 129.586 104.068 129.941 104.636 130.356C105.204 130.771 105.726 131.238 106.202 131.755C106.678 132.273 107.1 132.833 107.466 133.434C107.832 134.035 108.136 134.665 108.377 135.326C108.619 135.986 108.794 136.663 108.902 137.357C109.01 138.052 109.05 138.75 109.021 139.452C108.991 140.154 108.894 140.847 108.729 141.53C108.563 142.213 108.333 142.873 108.038 143.511C107.743 144.148 107.388 144.751 106.974 145.319C106.561 145.887 106.095 146.409 105.579 146.885C105.062 147.361 104.505 147.783 103.905 148.149C103.306 148.516 102.677 148.82 102.017 149.063Z" fill="url(#paint15_linear_2_89)"/>
</g>
<g opacity="0.2">
<path fill-rule="evenodd" clip-rule="evenodd" d="M99.792 106.752H96.133V105.83H99.792V106.752ZM88.143 107.347L84.7039 108.639L85.0193 109.502L88.458 108.252L88.143 107.347ZM77.7191 112.805L74.9169 115.156L75.5118 115.864L78.3201 113.483L77.7191 112.805ZM69.7764 121.435L67.944 124.607L68.7412 125.065L70.5736 121.893L69.7764 121.435ZM65.2726 132.291L64.636 135.898L65.5463 136.058L66.1829 132.452L65.2726 132.291ZM64.755 144.033L65.3916 147.64L66.2959 147.479L65.6593 143.873L64.755 144.033ZM68.2831 155.241L70.1096 158.413L70.9069 157.954L69.0803 154.782L68.2831 155.241ZM75.4226 164.567L78.2249 166.947L78.8198 166.239L76.0116 163.859L75.4226 164.567ZM85.3584 170.888L88.797 172.143L89.113 171.274L85.6737 170.025L85.3584 170.888ZM96.823 173.441H100.488V172.524H96.823V173.441ZM108.472 171.911L111.911 170.655L111.596 169.792L108.157 171.042L108.472 171.911ZM118.896 166.489L121.698 164.109L121.103 163.406L118.301 165.787L118.896 166.489ZM126.839 157.824L128.665 154.651L127.868 154.193L126.042 157.365L126.839 157.824ZM131.337 146.968L131.973 143.361L131.063 143.2L130.432 146.807L131.337 146.968ZM131.854 135.225L131.218 131.654L130.307 131.809L130.95 135.415L131.854 135.225ZM128.326 124.018L126.494 120.846L125.696 121.31L127.529 124.476L128.326 124.018ZM121.187 114.692L118.378 112.341L117.784 113.043L120.592 115.424L121.187 114.692ZM111.281 108.377L107.842 107.127L107.526 107.99L110.942 109.234L111.281 108.377Z" fill="url(#paint16_linear_2_89)"/>
</g>
<g opacity="0.2">
<path fill-rule="evenodd" clip-rule="evenodd" d="M148.612 174.203H139.702V172H148.612V174.203ZM120.245 175.624L111.87 178.711L112.638 180.772L121.012 177.786L120.245 175.624ZM94.8601 188.663L88.0362 194.279L89.4849 195.971L96.3237 190.283L94.8601 188.663ZM75.518 209.28L71.0557 216.857L72.997 217.952L77.4593 210.374L75.518 209.28ZM64.5502 235.214L63 243.831L65.2168 244.213L66.767 235.599L64.5502 235.214ZM63.2898 263.265L64.84 271.882L67.0422 271.498L65.492 262.883L63.2898 263.265ZM71.8815 290.041L76.3294 297.619L78.271 296.522L73.8228 288.944L71.8815 290.041ZM89.2677 312.32L96.0919 318.006L97.5406 316.315L90.702 310.629L89.2677 312.32ZM113.463 327.421L121.837 330.419L122.607 328.343L114.231 325.359L113.463 327.421ZM141.382 333.52H150.307V331.329H141.382V333.52ZM169.75 329.865L178.125 326.864L177.358 324.803L168.983 327.789L169.75 329.865ZM195.135 316.912L201.958 311.226L200.509 309.547L193.686 315.235L195.135 316.912ZM214.478 296.212L218.924 288.631L216.983 287.537L212.537 295.115L214.478 296.212ZM225.431 270.277L226.98 261.66L224.764 261.275L223.227 269.892L225.431 270.277ZM226.69 242.224L225.141 233.693L222.923 234.063L224.489 242.677L226.69 242.224ZM218.099 215.45L213.637 207.873L211.694 208.981L216.158 216.545L218.099 215.45ZM200.714 193.171L193.873 187.555L192.427 189.232L199.265 194.92L200.714 193.171ZM176.591 178.085L168.216 175.098L167.446 177.16L175.765 180.132L176.591 178.085Z" fill="url(#paint17_linear_2_89)"/>
</g>
<path fill-rule="evenodd" clip-rule="evenodd" d="M144.134 348.329C143.255 339.95 141.339 331.816 138.387 323.927C140.636 327.104 143.301 329.882 146.383 332.259C160.52 302.893 135.549 284.509 135.549 284.509C135.549 284.509 129.219 298.495 133.372 313.321C114.869 281.122 80.7537 280.723 80.7537 280.723C80.7537 280.723 75.7858 306.173 102.249 329.712C48.0726 315.594 34.9181 361.184 34.9181 361.184C34.9181 361.184 60.656 370.784 88.4642 366.321C96.8625 365.013 105.301 364.656 113.78 365.249C85.4299 364.708 84.7161 384.015 86.5306 386.515C88.2263 388.854 96.996 384.902 97.8348 388.633C97.8943 388.901 97.8348 388.633 95.699 389.973C88.7737 394.311 73.2572 411.72 76.3806 414.375C79.5042 417.029 89.7136 405.62 104.088 411.113C118.462 416.606 144.67 411.476 144.67 411.476C144.67 411.476 179.005 381.622 137.923 369.273C139.518 369.713 140.386 370.011 140.386 370.011C140.386 370.011 200.965 380.742 144.134 348.329Z" fill="url(#paint18_linear_2_89)"/>
<path d="M90.1538 381.884C90.9646 380.121 92.087 378.585 93.5212 377.278C94.2319 376.623 94.9895 376.028 95.7941 375.492C96.2046 375.23 96.5853 374.897 97.0197 374.701L98.3047 374.016C101.85 372.332 105.584 371.451 109.508 371.374C113.363 371.124 117.171 371.743 120.895 372.451C121.817 372.683 122.734 372.939 123.65 373.195C124.566 373.451 125.482 373.671 126.375 373.98C128.16 374.635 129.945 375.302 131.67 376.016C129.814 375.629 127.987 375.195 126.172 374.748L120.657 373.724L117.885 373.415C116.967 373.277 116.045 373.19 115.118 373.153L112.352 373.046C111.892 373.016 111.432 373.016 110.971 373.046L109.591 373.105L108.217 373.165L106.854 373.355C105.944 373.438 105.044 373.581 104.153 373.784C102.36 374.144 100.618 374.676 98.9294 375.379L97.6741 375.921C97.2664 376.112 96.8698 376.324 96.4841 376.557L95.8892 376.891C95.6816 376.994 95.4834 377.113 95.2942 377.248L94.152 378.016C92.6272 379.107 91.2944 380.396 90.1538 381.884Z" fill="#009BCD"/>
<path d="M81.1938 409.631C81.8748 408.614 82.6681 407.693 83.5737 406.869L84.9064 405.637L86.3046 404.447C86.7627 404.054 87.2625 403.709 87.7444 403.34C88.2263 402.971 88.7201 402.614 89.2198 402.275C90.2491 401.626 91.2487 400.936 92.2958 400.323C96.5139 397.853 100.972 395.944 105.67 394.597C106.265 394.43 106.825 394.216 107.42 394.085L109.204 393.663L110.989 393.258L111.876 393.056L112.774 392.913L116.374 392.359C116.969 392.258 117.564 392.228 118.159 392.187L119.943 392.05C122.359 391.875 124.776 391.837 127.196 391.937C128.402 391.966 129.604 392.057 130.801 392.21C131.991 392.33 133.181 392.466 134.371 392.609C133.181 392.609 131.962 392.651 130.766 392.651C129.57 392.651 128.386 392.603 127.196 392.728L123.626 392.96C122.436 392.996 121.246 393.216 120.057 393.341L118.272 393.562C117.672 393.62 117.077 393.71 116.487 393.829L112.982 394.49L112.108 394.651L111.251 394.877L109.526 395.323L107.8 395.752C107.205 395.889 106.664 396.103 106.099 396.27C104.974 396.645 103.832 396.966 102.725 397.388L99.3995 398.644L96.1451 400.073C95.0624 400.555 94.0211 401.12 92.9502 401.644C91.8793 402.168 90.8679 402.781 89.8267 403.346C88.7855 403.912 87.774 404.536 86.7924 405.227L85.3051 406.215L83.9069 407.25C82.9219 407.952 82.0176 408.746 81.1938 409.631Z" fill="#0096CD"/>
<path d="M40.9449 357.518C43.3821 355.183 46.0256 353.112 48.8757 351.305C49.5837 350.846 50.3036 350.418 51.0236 349.977C51.7434 349.537 52.4812 349.126 53.2249 348.721C54.7123 347.928 56.2255 347.18 57.7644 346.478C63.9714 343.643 70.4565 341.772 77.2195 340.865C80.5748 340.397 83.9462 340.181 87.3337 340.217C90.725 340.243 94.0964 340.515 97.448 341.032C104.137 342.081 110.554 344.025 116.701 346.865C110.336 344.903 103.843 343.558 97.2219 342.829C93.9398 342.5 90.6497 342.367 87.3517 342.431H86.1201L84.8885 342.496C84.0675 342.544 83.2465 342.561 82.4254 342.633L79.9741 342.865C79.1531 342.942 78.344 343.085 77.5289 343.186C70.9852 344.115 64.639 345.791 58.4902 348.216C56.9493 348.811 55.4321 349.459 53.9269 350.144C53.1714 350.477 52.4336 350.846 51.684 351.197C50.9343 351.549 50.1965 351.929 49.4707 352.328C46.5118 353.866 43.6699 355.596 40.9449 357.518Z" fill="#14C3D0"/>
<path d="M87.3516 286.729C91.9255 289.201 96.1696 292.149 100.084 295.573C101.065 296.418 102.041 297.275 102.987 298.156L105.789 300.858C107.574 302.751 109.359 304.607 111.013 306.631L112.262 308.125C112.679 308.625 113.06 309.155 113.452 309.666C114.238 310.702 115.041 311.726 115.791 312.785C117.213 314.958 118.765 317.058 119.955 319.332C122.592 323.816 124.744 328.522 126.411 333.449C123.834 328.968 121.371 324.522 118.438 320.314L117.397 318.725C117.224 318.457 117.04 318.201 116.844 317.945L116.278 317.177L114.029 314.089L111.65 311.113C111.251 310.613 110.87 310.101 110.46 309.619L109.216 308.173C105.932 304.273 102.462 300.547 98.8044 296.995C95.1455 293.412 91.3556 290.002 87.3516 286.729Z" fill="#19C8D0"/>
<path d="M137.733 290.395C138.925 293.166 139.853 296.023 140.517 298.965C141.219 301.89 141.802 304.834 142.266 307.798C142.504 309.28 142.713 310.773 142.915 312.25C143.117 313.726 143.278 315.225 143.426 316.719C143.575 318.213 143.7 319.695 143.813 321.201C143.926 322.707 144.004 324.177 144.045 325.694C143.522 322.719 143.052 319.784 142.594 316.826L141.195 307.976L140.826 305.768L140.44 303.56C140.19 302.09 139.928 300.626 139.648 299.156C139.51 298.422 139.367 297.69 139.22 296.96C139.083 296.228 138.923 295.501 138.768 294.769C138.47 293.305 138.149 291.835 137.733 290.395Z" fill="#19C8D0"/>
<path fill-rule="evenodd" clip-rule="evenodd" d="M318.338 395.99V401.209H149.965L123.347 320.064C123.188 319.585 123.088 319.093 123.047 318.59C123.006 318.087 123.026 317.586 123.105 317.087C123.185 316.589 123.322 316.107 123.517 315.641C123.713 315.176 123.96 314.74 124.26 314.334C124.56 313.928 124.904 313.563 125.292 313.24C125.68 312.916 126.1 312.644 126.553 312.421C127.006 312.199 127.479 312.034 127.972 311.925C128.465 311.816 128.964 311.768 129.469 311.779H216.564C219.581 311.779 221.854 312.154 223.638 313.095C225.953 314.285 227.44 316.469 228.666 319.981L253.642 392.306H313.953C314.781 392.276 315.558 392.462 316.282 392.865C317.007 393.268 317.575 393.83 317.987 394.549C318.22 395.001 318.337 395.481 318.338 395.99Z" fill="url(#paint19_linear_2_89)"/>
<path fill-rule="evenodd" clip-rule="evenodd" d="M317.987 394.549H251.857L223.638 313.094C225.953 314.285 227.44 316.469 228.666 319.981L253.642 392.306H313.953C314.781 392.276 315.558 392.462 316.282 392.865C317.007 393.268 317.575 393.83 317.987 394.549Z" fill="#FCD2D2"/>
<path fill-rule="evenodd" clip-rule="evenodd" d="M191.523 356.578C191.461 357.762 191.183 358.892 190.689 359.97C190.194 361.047 189.518 361.995 188.661 362.814C187.803 363.632 186.825 364.263 185.725 364.707C184.626 365.15 183.484 365.375 182.299 365.381C181.114 365.386 179.969 365.173 178.866 364.74C177.762 364.307 176.778 363.686 175.912 362.876C175.047 362.066 174.362 361.124 173.857 360.051C173.352 358.979 173.063 357.851 172.99 356.667C172.917 355.484 173.065 354.329 173.435 353.202C173.804 352.076 174.369 351.057 175.128 350.147C175.888 349.237 176.788 348.499 177.83 347.934C178.872 347.369 179.982 347.016 181.159 346.876C180.709 348.32 180.678 349.773 181.064 351.235C181.45 352.697 182.196 353.945 183.299 354.978C184.403 356.012 185.697 356.673 187.181 356.961C188.665 357.25 190.112 357.122 191.523 356.578Z" fill="white"/>
<path fill-rule="evenodd" clip-rule="evenodd" d="M149 401H491.676C493.502 401 495 402.313 495 403.921V409H149V401Z" fill="url(#paint20_linear_2_89)"/>
<path fill-rule="evenodd" clip-rule="evenodd" d="M243.784 397.394C237.9 391.05 224.525 387.11 210.936 386.8C197.847 386.497 184.556 389.568 177.589 397.097C176.842 397.916 176.144 398.775 175.495 399.674C167.873 392.794 156.224 388.764 140.987 394.978C91.79 415.029 123.192 484.551 123.192 484.551C127.654 474.891 131.735 470.047 142.165 466.624C158.021 461.429 168.248 454.501 174.793 447.442C178.026 454.199 182.272 460.244 187.531 465.577C208.681 487.051 202.839 512.994 202.839 512.994C202.839 512.994 230.802 507.56 238.584 470.594C243.016 449.466 226.334 440.104 227.28 428.462C228.226 416.821 232.26 412.059 236.204 408.226C221.592 443.871 278.63 459.982 278.63 459.982C278.63 459.982 294.159 392.133 243.784 397.394Z" fill="url(#paint21_linear_2_89)"/>
<path d="M157.783 404.673C156.434 405.566 155.143 406.536 153.909 407.584C152.66 408.601 151.482 409.696 150.34 410.815C148.055 413.05 145.935 415.43 143.98 417.957C140.062 423.001 136.776 428.427 134.121 434.235C131.469 440.07 129.375 446.099 127.838 452.322C126.297 458.603 125.123 464.951 124.316 471.368C124.086 464.824 124.556 458.331 125.726 451.888L126.178 449.472C126.351 448.668 126.541 447.871 126.726 447.091C127.071 445.484 127.559 443.913 127.999 442.33C128.953 439.17 130.102 436.083 131.444 433.069C132.784 430.04 134.335 427.124 136.096 424.32C137.867 421.518 139.85 418.875 142.046 416.392C144.243 413.904 146.659 411.651 149.293 409.631C150.599 408.627 151.959 407.702 153.374 406.858C154.777 405.995 156.246 405.267 157.783 404.673Z" fill="#2DDCDC"/>
<path d="M206.902 391.829C199.317 398.335 194.408 407.601 193.629 417.213C193.267 422.055 193.731 426.817 195.021 431.497C196.338 436.194 198.171 440.679 200.518 444.954C201.679 447.103 202.982 449.12 204.267 451.364C205.552 453.608 206.766 455.757 207.896 458.03C209.026 460.304 210.073 462.607 211.049 464.958C212.02 467.312 212.867 469.711 213.59 472.154C215.131 477.083 215.853 482.13 215.755 487.295C215.677 489.876 215.243 492.395 214.452 494.853C214.043 496.067 213.524 497.232 212.894 498.347C212.265 499.47 211.471 500.462 210.514 501.323C211.288 500.343 211.896 499.27 212.34 498.103C212.809 496.966 213.16 495.793 213.393 494.585C213.874 492.182 214.034 489.758 213.875 487.312C213.737 484.875 213.388 482.469 212.828 480.093C212.301 477.704 211.616 475.361 210.776 473.064C209.133 468.431 207.146 463.952 204.814 459.625C204.219 458.536 203.672 457.447 203.029 456.381C202.387 455.316 201.839 454.227 201.185 453.174C199.935 451.084 198.591 448.888 197.395 446.627C194.925 442.093 193.073 437.32 191.838 432.307C191.229 429.787 190.833 427.233 190.648 424.647C190.495 422.058 190.594 419.479 190.946 416.91C191.301 414.37 191.922 411.897 192.808 409.491C193.694 407.085 194.825 404.8 196.202 402.637C197.578 400.473 199.168 398.481 200.972 396.659C202.776 394.837 204.753 393.227 206.902 391.829Z" fill="#19B9D0"/>
<path d="M251.786 408.298C253.449 409.506 254.969 410.875 256.343 412.405C257.051 413.143 257.688 413.946 258.366 414.72C259.044 415.493 259.615 416.345 260.246 417.154C262.653 420.482 264.769 423.986 266.594 427.665C268.421 431.329 269.995 435.098 271.318 438.973C271.985 440.901 272.508 442.865 273.103 444.817C273.585 446.805 274.061 448.781 274.442 450.769C273.585 448.912 272.829 447.031 272.062 445.157L270.872 442.371C270.462 441.449 270.122 440.502 269.682 439.586C268.808 437.771 268.105 435.878 267.195 434.087C266.761 433.182 266.35 432.259 265.934 431.349L264.578 428.676C262.793 425.105 260.889 421.534 258.789 418.136C257.712 416.446 256.653 414.738 255.481 413.101C254.343 411.428 253.111 409.827 251.786 408.298Z" fill="#0096CD"/>
<path fill-rule="evenodd" clip-rule="evenodd" d="M294.218 88.3588C294.218 84.9782 290.375 82.2345 285.639 82.2345C280.903 82.2345 277.06 84.9782 277.06 88.3588C277.067 89.4198 277.392 90.3721 278.036 91.2156C277.394 92.0531 277.067 92.9994 277.054 94.0545C277.054 97.4351 280.897 100.179 285.633 100.179C290.369 100.179 294.212 97.4351 294.212 94.0545C294.2 92.9994 293.872 92.0531 293.231 91.2156C293.879 90.3736 294.208 89.4213 294.218 88.3588Z" fill="url(#paint22_linear_2_89)"/>
<path fill-rule="evenodd" clip-rule="evenodd" d="M285.639 19.0811V89.2396C286.091 89.2408 286.539 89.2011 286.984 89.1206C287.303 89.0644 287.616 88.9851 287.924 88.8825C291.386 87.7517 293.153 84.1866 294.468 82.2345C296.759 78.8361 298.597 77.2351 304.928 69.611C318.933 52.7439 310.479 19.0811 285.639 19.0811Z" fill="url(#paint23_linear_2_89)"/>
<path fill-rule="evenodd" clip-rule="evenodd" d="M285.639 19.0811V89.2396C285.187 89.2408 284.739 89.2011 284.294 89.1206C283.975 89.0644 283.662 88.9851 283.354 88.8825C279.892 87.7517 278.125 84.1866 276.81 82.2345C274.519 78.8361 272.681 77.2351 266.351 69.611C252.345 52.7439 260.782 19.0811 285.639 19.0811Z" fill="url(#paint24_linear_2_89)"/>
<path d="M284.294 89.1206C283.975 89.0644 283.662 88.9851 283.354 88.8826L277.786 55.9816C277.738 55.6881 277.861 55.5175 278.155 55.4698C278.445 55.4222 278.615 55.5432 278.666 55.8328L284.294 89.1206Z" fill="url(#paint25_linear_2_89)"/>
<path d="M286.96 89.1206C287.279 89.0644 287.592 88.985 287.9 88.8825L293.504 55.9816C293.552 55.6881 293.429 55.5175 293.135 55.4697C292.845 55.4222 292.675 55.5432 292.624 55.8328L286.96 89.1206Z" fill="url(#paint26_linear_2_89)"/>
<path d="M280.118 56.9636L281.605 55.2436L281.873 54.9341L282.069 55.3329L283.325 57.8802L282.855 57.7969L286.781 53.9521L287.085 53.6545L287.257 54.0414L289 57.8862L288.548 57.7731L291.249 56.0887L288.911 58.2492L288.626 58.5111L288.459 58.1361L286.716 54.2854L287.198 54.3747L283.271 58.2254L282.974 58.5111L282.795 58.1421L281.534 55.6007L281.998 55.69L280.118 56.9636Z" fill="#FFF980"/>
<path d="M266.928 62.088C266.529 62.0861 266.251 61.9016 266.095 61.5345C266.031 61.4092 265.998 61.2763 265.994 61.1358C265.996 61.1159 265.996 61.0961 265.994 61.0762C264.441 55.9221 261.674 42.6796 269.528 31.0083C269.661 30.7936 269.851 30.6597 270.098 30.6065C270.345 30.5532 270.573 30.597 270.783 30.7377C270.993 30.8785 271.12 31.0732 271.164 31.322C271.209 31.5707 271.157 31.7975 271.009 32.0023C263.584 43.0426 266.249 55.6543 267.707 60.5704C267.826 60.9751 268.052 61.731 267.291 62.0404C267.173 62.0793 267.052 62.0951 266.928 62.088ZM270.896 69.0456C271.101 68.978 271.244 68.8444 271.326 68.6448C271.408 68.4452 271.399 68.2495 271.301 68.0576L269.569 64.7841C269.301 64.3339 268.924 64.207 268.439 64.4032C268.234 64.4722 268.09 64.607 268.009 64.8074C267.927 65.0079 267.936 65.2045 268.034 65.3972L269.766 68.6706C269.924 68.9381 270.158 69.0849 270.468 69.111C270.616 69.1252 270.759 69.1034 270.896 69.0456Z" fill="url(#paint27_linear_2_89)"/>
<path d="M478.572 376.444C476.501 374.659 473.503 374.742 471.736 374.962C471.891 372.57 471.891 370.177 471.736 367.785H431.576C431.576 367.785 429.256 401.221 452.102 401.221C460.057 401.221 464.834 397.055 467.696 391.633C475.187 391.234 480.101 387.687 480.559 382.259C480.767 379.694 480.101 377.742 478.572 376.444ZM477.584 381.997C477.239 386.033 473.283 387.949 469.088 388.509C470.321 385.111 471.115 381.613 471.468 378.016C472.759 377.778 475.312 377.587 476.638 378.718C477.412 379.367 477.715 380.468 477.584 381.997Z" fill="url(#paint28_linear_2_89)"/>
<path d="M452.899 362.422C452.899 362.422 441.869 356.155 449.33 343.264C452.465 337.866 445.885 333.991 441.262 329.23C437.097 324.915 437.906 311.333 450.579 313.404C462.906 315.422 466.881 331.2 460.86 341.133C457.504 346.704 444.85 349.817 452.899 362.422Z" fill="url(#paint29_linear_2_89)"/>
<defs>
<linearGradient id="paint0_linear_2_89" x1="348.949" y1="19.742" x2="274.586" y2="441.301" gradientUnits="userSpaceOnUse">
<stop stop-color="#FFFFF0"/>
<stop offset="0.51" stop-color="#FFD7F5"/>
<stop offset="0.67" stop-color="#EDE2F2"/>
<stop offset="1" stop-color="#BEFFE9"/>
</linearGradient>
<linearGradient id="paint1_linear_2_89" x1="349.045" y1="43.101" x2="279.723" y2="437.332" gradientUnits="userSpaceOnUse">
<stop stop-color="#FAF0D2"/>
<stop offset="0.33" stop-color="#F6C1EF"/>
<stop offset="0.5" stop-color="#F5AFFA"/>
<stop offset="0.58" stop-color="#E3B7F5"/>
<stop offset="0.74" stop-color="#B3CBE9"/>
<stop offset="0.96" stop-color="#66EBD5"/>
<stop offset="0.99" stop-color="#5AF0D2"/>
</linearGradient>
<linearGradient id="paint2_linear_2_89" x1="403.078" y1="286.741" x2="350.757" y2="138.99" gradientUnits="userSpaceOnUse">
<stop stop-color="#ED5E05"/>
<stop offset="1" stop-color="#FFD924"/>
</linearGradient>
<linearGradient id="paint3_linear_2_89" x1="434.117" y1="294.924" x2="418.963" y2="183.199" gradientUnits="userSpaceOnUse">
<stop stop-color="white"/>
<stop offset="1" stop-color="white"/>
</linearGradient>
<linearGradient id="paint4_linear_2_89" x1="484.92" y1="198.09" x2="368.29" y2="280.045" gradientUnits="userSpaceOnUse">
<stop stop-color="#E71B7B"/>
<stop offset="0.08" stop-color="#E01B78"/>
<stop offset="1" stop-color="#8C1759"/>
</linearGradient>
<linearGradient id="paint5_linear_2_89" x1="543.666" y1="279.093" x2="396.063" y2="323.79" gradientUnits="userSpaceOnUse">
<stop stop-color="#2ABBC3"/>
<stop offset="1" stop-color="#0071AA"/>
</linearGradient>
<linearGradient id="paint6_linear_2_89" x1="391.161" y1="329.521" x2="266.148" y2="307.47" gradientUnits="userSpaceOnUse">
<stop stop-color="#ED7505"/>
<stop offset="1" stop-color="#FFD924"/>
</linearGradient>
<linearGradient id="paint7_linear_2_89" x1="278.178" y1="344.377" x2="236.222" y2="330.741" gradientUnits="userSpaceOnUse">
<stop stop-color="#ED7505"/>
<stop offset="1" stop-color="#FFD924"/>
</linearGradient>
<linearGradient id="paint8_linear_2_89" x1="280.606" y1="258.178" x2="319.671" y2="235.538" gradientUnits="userSpaceOnUse">
<stop stop-color="#FDE4D5"/>
<stop offset="0.2" stop-color="#FBD5C8"/>
<stop offset="0.59" stop-color="#F5ADA5"/>
<stop offset="1" stop-color="#EF7D7C"/>
</linearGradient>
<linearGradient id="paint9_linear_2_89" x1="278.75" y1="365.511" x2="291.797" y2="379.51" gradientUnits="userSpaceOnUse">
<stop stop-color="#FDE4D5"/>
<stop offset="0.2" stop-color="#FBD5C8"/>
<stop offset="0.59" stop-color="#F6ADA5"/>
<stop offset="1" stop-color="#EF7D7C"/>
</linearGradient>
<linearGradient id="paint10_linear_2_89" x1="410.235" y1="350.495" x2="316.202" y2="319.927" gradientUnits="userSpaceOnUse">
<stop stop-color="#ED7505"/>
<stop offset="1" stop-color="#FFD924"/>
</linearGradient>
<linearGradient id="paint11_linear_2_89" x1="235.437" y1="223.284" x2="386.008" y2="244.002" gradientUnits="userSpaceOnUse">
<stop stop-color="#772080"/>
<stop offset="0.31" stop-color="#5D2078"/>
<stop offset="0.75" stop-color="#3F206E"/>
<stop offset="1" stop-color="#34206A"/>
</linearGradient>
<linearGradient id="paint12_linear_2_89" x1="269.224" y1="223.593" x2="289.358" y2="188.942" gradientUnits="userSpaceOnUse">
<stop stop-color="#FDE4D5"/>
<stop offset="0.2" stop-color="#FBD5C8"/>
<stop offset="0.59" stop-color="#F5ADA5"/>
<stop offset="1" stop-color="#EF7D7C"/>
</linearGradient>
<linearGradient id="paint13_linear_2_89" x1="263.334" y1="206.381" x2="408.783" y2="223.51" gradientUnits="userSpaceOnUse">
<stop stop-color="#772080"/>
<stop offset="0.31" stop-color="#5D2078"/>
<stop offset="0.75" stop-color="#3F206E"/>
<stop offset="1" stop-color="#34206A"/>
</linearGradient>
<linearGradient id="paint14_linear_2_89" x1="88.6428" y1="245.239" x2="200.715" y2="260.994" gradientUnits="userSpaceOnUse">
<stop stop-color="#E71B7B"/>
<stop offset="1" stop-color="#A21759"/>
</linearGradient>
<linearGradient id="paint15_linear_2_89" x1="68.063" y1="133.273" x2="109.532" y2="139.106" gradientUnits="userSpaceOnUse">
<stop stop-color="#E71B7B"/>
<stop offset="1" stop-color="#A21759"/>
</linearGradient>
<linearGradient id="paint16_linear_2_89" x1="101.821" y1="106.044" x2="94.7647" y2="173.227" gradientUnits="userSpaceOnUse">
<stop stop-color="#E71B7B"/>
<stop offset="1" stop-color="#A21759"/>
</linearGradient>
<linearGradient id="paint17_linear_2_89" x1="153.553" y1="172.511" x2="137.009" y2="333.074" gradientUnits="userSpaceOnUse">
<stop stop-color="#E71B7B"/>
<stop offset="1" stop-color="#A21759"/>
</linearGradient>
<linearGradient id="paint18_linear_2_89" x1="75.7917" y1="304.584" x2="132.021" y2="398.198" gradientUnits="userSpaceOnUse">
<stop stop-color="#2ABBC3"/>
<stop offset="1" stop-color="#0071AA"/>
</linearGradient>
<linearGradient id="paint19_linear_2_89" x1="237.132" y1="408.458" x2="204.273" y2="306.244" gradientUnits="userSpaceOnUse">
<stop stop-color="#FDE6E6"/>
<stop offset="0.48" stop-color="#FDE9E9"/>
<stop offset="0.77" stop-color="#FEF1F1"/>
<stop offset="1" stop-color="white"/>
</linearGradient>
<linearGradient id="paint20_linear_2_89" x1="321.949" y1="409.454" x2="322.009" y2="400.574" gradientUnits="userSpaceOnUse">
<stop stop-color="#D4006D"/>
<stop offset="1" stop-color="#A21759"/>
</linearGradient>
<linearGradient id="paint21_linear_2_89" x1="148.96" y1="410.988" x2="240.113" y2="474.838" gradientUnits="userSpaceOnUse">
<stop stop-color="#2ABBC3"/>
<stop offset="1" stop-color="#0071AA"/>
</linearGradient>
<linearGradient id="paint22_linear_2_89" x1="285.639" y1="97.9112" x2="285.639" y2="84.4842" gradientUnits="userSpaceOnUse">
<stop stop-color="#772080"/>
<stop offset="1" stop-color="#34206A"/>
</linearGradient>
<linearGradient id="paint23_linear_2_89" x1="282.236" y1="78.842" x2="300.816" y2="32.2463" gradientUnits="userSpaceOnUse">
<stop stop-color="#ED6D05"/>
<stop offset="0.25" stop-color="#F3900F"/>
<stop offset="0.58" stop-color="#F9B81A"/>
<stop offset="0.84" stop-color="#FED021"/>
<stop offset="1" stop-color="#FFD924"/>
</linearGradient>
<linearGradient id="paint24_linear_2_89" x1="282.236" y1="78.842" x2="300.817" y2="32.2463" gradientUnits="userSpaceOnUse">
<stop stop-color="#ED6D05"/>
<stop offset="0.25" stop-color="#F3900F"/>
<stop offset="0.58" stop-color="#F9B81A"/>
<stop offset="0.84" stop-color="#FED021"/>
<stop offset="1" stop-color="#FFD924"/>
</linearGradient>
<linearGradient id="paint25_linear_2_89" x1="277.78" y1="72.2892" x2="284.294" y2="72.2892" gradientUnits="userSpaceOnUse">
<stop stop-color="#FFFF24"/>
<stop offset="1" stop-color="#ED7805"/>
</linearGradient>
<linearGradient id="paint26_linear_2_89" x1="286.964" y1="72.2892" x2="293.515" y2="72.2892" gradientUnits="userSpaceOnUse">
<stop stop-color="#ED7805"/>
<stop offset="1" stop-color="#FFFF24"/>
</linearGradient>
<linearGradient id="paint27_linear_2_89" x1="261.936" y1="54.5592" x2="278.845" y2="45.1793" gradientUnits="userSpaceOnUse">
<stop stop-color="#FFCD05"/>
<stop offset="0.09" stop-color="#FFD71A"/>
<stop offset="0.24" stop-color="#FFE538"/>
<stop offset="0.4" stop-color="#FFF150"/>
<stop offset="0.58" stop-color="#FFF961"/>
<stop offset="0.77" stop-color="#FFFD6B"/>
<stop offset="1" stop-color="#FFFF6E"/>
</linearGradient>
<linearGradient id="paint28_linear_2_89" x1="431.499" y1="384.491" x2="480.589" y2="384.491" gradientUnits="userSpaceOnUse">
<stop stop-color="#FDE6E6"/>
<stop offset="1" stop-color="white"/>
</linearGradient>
<linearGradient id="paint29_linear_2_89" x1="448.485" y1="312.845" x2="458.754" y2="361.172" gradientUnits="userSpaceOnUse">
<stop stop-color="white" stop-opacity="0.74902"/>
<stop offset="1" stop-color="#E1E1E1"/>
</linearGradient>
</defs>
</svg>
